<?xml version="1.0" encoding="UTF-8"?><svg id="Layer_2" xmlns="http://www.w3.org/2000/svg" viewBox="0 0 800 800"><defs><style>.cls-1{fill:#fff;}.cls-2{fill:#00aeef;}</style></defs><g id="Layer_1-2"><g><rect class="cls-1" width="800" height="800"/><g><path class="cls-2" d="M673.51,777.02l55.9-100.16c1.91-3.27,3.5-6.81,4.8-10.61,1.3-3.8,1.95-7.08,1.95-9.84,0-7.4-2.42-13.5-7.25-18.24-4.83-4.73-10.88-7.12-18.12-7.12s-13.29,2.39-18.11,7.12c-4.84,4.75-7.25,10.84-7.25,18.24,0,16.93,9.06,25.89,27.17,26.93l-18.38,34.17c-14.14-3.46-25.53-10.83-34.15-22.14-8.64-11.3-12.94-24.29-12.94-38.96,0-9.13,1.55-17.59,4.66-25.37,3.1-7.76,7.5-14.53,13.19-20.31,5.7-5.78,12.48-10.22,20.33-13.33,7.85-3.11,16.35-4.67,25.5-4.67s17.85,1.56,25.62,4.67c7.78,3.11,14.54,7.54,20.31,13.33,5.79,5.78,10.19,12.55,13.21,20.31,3.02,7.78,4.53,16.24,4.53,25.37,0,6.23-1.33,12.94-4.01,20.2-2.68,7.24-6.17,14.85-10.49,22.77l-42.45,77.65h-43.99Z"/><path class="cls-2" d="M695.75,270.02c-71.51-33.88-156.95-3.37-190.83,68.14-4.94,10.43-8.47,21.18-10.75,32l83.15,39.4c-2.03-11.44-.69-23.59,4.66-34.9,13.71-28.96,48.31-41.31,77.25-27.59,28.96,13.72,41.32,48.31,27.6,77.27-13.63,28.76-47.85,41.11-76.68,27.82l-153.54-72.74,.03-.06-.33-.15,75.6-159.61c28.05-69.77-2.76-150.18-71.62-182.8-71.51-33.89-156.95-3.38-190.83,68.14-33.88,71.5-3.37,156.94,68.14,190.82,10.45,4.95,21.18,8.48,32.01,10.76l39.4-83.16c-11.45,2.02-23.6,.68-34.9-4.67-28.96-13.71-41.3-48.3-27.59-77.26,13.72-28.96,48.31-41.31,77.27-27.59,28.76,13.63,41.11,47.85,27.82,76.68l-72.15,152.28-160.54-76.04c-69.77-28.06-150.18,2.76-182.81,71.62-33.88,71.51-3.38,156.95,68.13,190.83,71.52,33.87,156.95,3.37,190.84-68.14,4.95-10.44,8.48-21.18,10.76-32.01l-83.16-39.4c2.02,11.44,.69,23.6-4.67,34.9-13.71,28.96-48.3,41.3-77.25,27.59-28.96-13.72-41.31-48.31-27.6-77.27,13.63-28.76,47.85-41.11,76.68-27.82l153.21,72.59-.03,.05,76.84,36.41h0s161.19,76.34,161.19,76.34c69.77,28.06,150.19-2.77,182.81-71.62,33.88-71.51,3.38-156.94-68.14-190.83Z"/><g><path class="cls-2" d="M23.43,655.81c0-36.12,28.76-63.85,64.7-63.85,22.59,0,42.28,10.27,54.6,28.93,3.94,6.34,7.19,13.18,8.22,20.54h-33.04c-4.96-12.66-16.08-21.74-29.78-21.74-20.19,0-33.2,17.11-33.2,36.12s13.01,36.8,33.2,36.8c14.03,0,24.31-8.73,29.78-20.89h33.04c-7.19,29.27-32.52,48.61-62.3,48.61-35.94,0-65.21-27.91-65.21-64.52Z"/><path class="cls-2" d="M164.81,591.96h32.69v99.44h38.17v28.93h-70.86v-128.37Z"/><path class="cls-2" d="M241.14,657.34c0-9.07,1.54-17.79,4.96-26.36,1.71-4.61,4.62-9.58,8.05-13.68,12.65-16.77,30.97-25.34,52.2-25.34,36.12,0,65.38,27.55,65.38,64.19s-29.26,64.19-65.55,64.19-65.04-27.21-65.04-62.99Zm31.67-1.71c0,19.86,13.35,36.79,34.06,36.79s33.2-17.45,33.2-36.28-13.51-36.63-33.71-36.63-33.54,16.61-33.54,36.12Z"/><path class="cls-2" d="M500.61,591.96v128.37h-67.6c-13.35-.35-27.38-3.94-36.46-13.69-11.47-12.33-12.83-23.28-12.83-39.36v-75.32h32.69v75.32c0,11.46,1.87,24.3,16.6,24.3h38.84v-99.62h28.76Z"/><path class="cls-2" d="M517.22,720.33v-128.37h42.46c23.28,0,42.09,3.77,56.64,23.96,8.38,11.47,11.82,25.68,11.82,39.89,0,41.93-23.97,64.52-66.08,64.52h-44.85Zm32.7-99.62v70.87h14.03c22.59,0,31.49-14.54,31.49-35.43s-9.42-35.43-31.15-35.43h-14.37Z"/></g></g></g></g></svg>